<svg xml:space="preserve" xmlns:serif="http://www.serif.com/" xmlns:xlink="http://www.w3.org/1999/xlink" id="Layer_1" style="enable-background:new 0 0 610.5 83.3;" version="1.1" viewBox="0 0 610.5 83.3" x="0px" xmlns="http://www.w3.org/2000/svg" y="0px"><path _ngcontent-c0="" class="st0" d="M42.3,83.3c-5.8,0-11.3-1.1-16.5-3.2s-9.6-5.1-13.4-8.8S5.6,63.1,3.3,58S0,47.3,0,41.4c0-5.8,1.1-11.3,3.3-16.3
      s5.2-9.4,8.9-13.2s8.2-6.7,13.3-8.8C30.6,1.1,36.1,0,42,0c7.4,0,14.2,1.6,20.3,4.8c6.1,3.2,11.2,7.9,15.2,13.9
      c1.3,2.1,2.4,4.2,3.3,6.4s1.6,4.5,2,6.9H61.3c-1.6-4.1-4.1-7.5-7.6-10.2C50.3,19.3,46.4,18,42,18c-3.3,0-6.2,0.6-8.9,1.9
      c-2.7,1.3-4.9,3-6.8,5.2c-1.9,2.1-3.3,4.6-4.3,7.4c-1,2.8-1.5,5.8-1.5,8.9s0.5,6.1,1.5,8.9c1,2.9,2.4,5.4,4.3,7.6
      c1.9,2.2,4.2,4,6.8,5.3c2.7,1.3,5.6,2,8.9,2c4.6,0,8.5-1.3,11.8-3.8c3.3-2.5,5.8-5.8,7.6-9.8h21.4c-1.2,4.7-3.1,9.1-5.6,12.9
      c-2.6,3.9-5.6,7.2-9.2,9.9c-3.6,2.7-7.5,4.9-11.9,6.4C51.7,82.5,47.1,83.3,42.3,83.3L42.3,83.3z M137.8,0.2h20.3v83.1h-18.4
      L108,32.6l-0.2,0.2l0.6,50.4H88.1V0.2h18.2l32.2,52.1l0.2-0.1l-0.6-33.4h-1.2h-11.1V0.2H137.8L137.8,0.2z M172.7,41.9h17.9
      c1.9,0,3.7-0.2,5.4-0.6c1.7-0.4,3.2-1.1,4.4-2.1c1.3-1,2.2-2.2,2.9-3.7c0.7-1.5,1.1-3.3,1.1-5.4c0-2.1-0.4-3.8-1.1-5.3
      s-1.7-2.6-3-3.5c-1.3-0.9-2.7-1.5-4.4-1.9c-1.7-0.4-3.4-0.6-5.2-0.6h-7.9h-20.3V0.2h26.2c2.2,0,4.5,0,6.7,0.1
      c2.3,0.1,4.5,0.3,6.7,0.7c2.2,0.4,4.4,1,6.4,1.8c2.1,0.8,4,1.9,5.9,3.3c3.4,2.8,6,6.2,7.7,10.2c1.7,4,2.6,8.2,2.6,12.5
      c0,3.2-0.5,6.2-1.4,9.2c-0.9,2.9-2.3,5.6-4.1,7.9c-1.8,2.3-3.9,4.3-6.5,5.9c-2.6,1.6-5.5,2.6-8.7,3.2l22.4,28.3h-24.2L172.7,41.9
      L172.7,41.9z M256.8,0.1c6.5,0,12.4,0.9,17.5,2.8c5.2,1.9,9.6,4.6,13.2,8.2c3.6,3.6,6.3,7.9,8.2,13c1.9,5.1,2.8,11,2.8,17.5
      c0,6.6-0.9,12.5-2.8,17.6c-1.9,5.1-4.6,9.5-8.2,13c-3.6,3.6-8,6.3-13.2,8.1c-5.2,1.9-11,2.8-17.5,2.8h-23.5v-2.9h23.5
      c6,0,11.4-0.9,16.2-2.6c4.8-1.7,8.8-4.3,12.1-7.6c3.3-3.3,5.8-7.3,7.6-12.1c1.8-4.8,2.7-10.2,2.7-16.2c0-6.1-0.9-11.5-2.6-16.3
      c-1.7-4.8-4.3-8.9-7.6-12.2c-3.3-3.3-7.3-5.9-12.1-7.6c-4.8-1.7-10.2-2.6-16.3-2.6h-23.5v-3L256.8,0.1L256.8,0.1z M303.8,83.2V0.2
      h45.6v2.9h-42.3v36.8h22.1V43h-22.1v37.3h42.3v2.9C349.4,83.2,303.8,83.2,303.8,83.2z M377.4,83.3c-2.4,0-5-0.4-7.6-1.3
      c-2.6-0.9-5-2.2-7.3-3.9c-2.3-1.8-4.2-4-5.7-6.8c-1.6-2.7-2.5-6-2.8-9.8h3.2c0.5,3.9,1.6,7,3.1,9.4c1.6,2.4,3.3,4.3,5.3,5.7
      c2,1.4,4,2.3,6.1,2.8c2.1,0.5,3.9,0.8,5.5,0.8c2.5,0,5-0.4,7.4-1.3c2.4-0.9,4.6-2.2,6.5-3.8c1.9-1.7,3.4-3.7,4.6-6.1
      c1.1-2.4,1.7-5,1.7-7.9c0-3.6-0.7-6.6-2.1-9c-1.4-2.4-3.1-4.3-5.2-5.7c-2.1-1.4-4.3-2.5-6.7-3.3c-2.4-0.7-4.6-1.4-6.5-1.9
      c-1.8-0.4-3.9-1.1-6.3-1.8c-2.4-0.8-4.7-1.9-6.9-3.3c-2.2-1.4-4.1-3.4-5.6-5.8c-1.6-2.4-2.3-5.5-2.3-9.3v-0.3c0-3.3,0.6-6.2,1.8-8.7
      c1.2-2.6,2.8-4.7,4.8-6.5c2-1.8,4.3-3.1,6.9-4.1c2.6-0.9,5.4-1.4,8.3-1.4c2.4,0,4.7,0.4,7,1.1c2.3,0.7,4.4,1.8,6.3,3.3
      c1.9,1.5,3.5,3.4,4.9,5.8c1.4,2.3,2.3,5.2,2.7,8.5h-3.2c-0.3-1.6-0.8-3.3-1.5-5.1s-1.7-3.6-3.1-5.1c-1.3-1.6-3.1-2.9-5.2-3.9
      S380.8,3,377.5,3c-2.6,0-5,0.4-7.2,1.2s-4.2,2-5.8,3.6c-1.7,1.6-3,3.4-3.9,5.6s-1.4,4.6-1.4,7.2c0,3.1,0.6,5.7,1.8,7.8
      c1.2,2.1,2.9,3.8,4.9,5.2c2,1.4,4.4,2.5,7,3.3c2.6,0.9,5.3,1.6,8.2,2.4c0.6,0.1,1.5,0.4,2.8,0.7c1.3,0.3,2.6,0.8,4.1,1.4
      c1.4,0.6,2.9,1.4,4.5,2.4c1.6,1,3,2.3,4.2,3.8c1.3,1.5,2.3,3.4,3.1,5.6c0.8,2.2,1.2,4.7,1.2,7.6c0,3.3-0.7,6.4-2,9.1
      c-1.3,2.7-3.1,5.1-5.3,7.1c-2.2,2-4.7,3.6-7.5,4.7C383.3,82.7,380.4,83.3,377.4,83.3z M455.4,3.1h-22.8v77.1h22.8v3.1h-22.8h-3.3
      h-24.4v-3.1h24.4V3.1h-24.4V0h50.5C455.4,0,455.4,3.1,455.4,3.1z M539.9,47.9l-23,32.4c-1.6,0.7-3.4,1.2-5.2,1.7
      c-3.5,0.9-7.1,1.3-11,1.3c-5.8,0-11.2-1-16.2-3.1c-5-2.1-9.4-5-13.2-8.7c-3.8-3.7-6.8-8.1-8.9-13.2c-2.2-5.1-3.3-10.6-3.3-16.6
      s1.1-11.6,3.3-16.7c2.2-5.1,5.2-9.5,8.9-13.2c3.8-3.7,8.2-6.6,13.2-8.7c5-2.1,10.4-3.1,16.2-3.1c3.7,0,7.3,0.4,10.9,1.3
      c3.6,0.9,7,2.2,10.2,3.8s6.1,3.7,8.7,6.1c2.6,2.4,4.9,5.1,6.7,8.1h-3.9c-4-5.3-8.8-9.4-14.3-12.2c-5.6-2.8-11.7-4.2-18.3-4.2
      c-5.3,0-10.3,1-15,2.9c-4.7,2-8.7,4.7-12.2,8.1c-3.5,3.4-6.2,7.5-8.2,12.2c-2,4.7-3,9.8-3,15.4c0,5.6,1,10.7,3,15.4
      c2,4.7,4.7,8.8,8.2,12.2c3.5,3.4,7.6,6.1,12.2,8.1s9.7,2.9,15,2.9c2.4,0,4.8-0.2,7.2-0.6c2.3-0.4,4.5-1,6.6-1.7l19.3-27.1h-42v-3
      L539.9,47.9L539.9,47.9z M607.3,0.2h3.2v83.1h-4.2L548.7,3.6h-0.3v79.7H545V0.2h5.1L607,78.7h0.3V3.2h-22.8v-3
      C584.5,0.2,607.3,0.2,607.3,0.2z" fill="#000"></path></svg>